<svg width="18" height="18" viewBox="0 0 18 18" fill="none" xmlns="http://www.w3.org/2000/svg">
<path fill-rule="evenodd" clip-rule="evenodd" d="M18 9C18 13.9706 13.9706 18 9 18C4.02944 18 0 13.9706 0 9C0 4.02944 4.02944 0 9 0C13.9706 0 18 4.02944 18 9ZM11.1655 4.35484C11.5093 4.12782 11.9648 4.39077 11.9401 4.80205L11.6131 10.2504C11.6036 10.4075 11.5208 10.551 11.3894 10.6377L6.83451 13.6452C6.49067 13.8722 6.03523 13.6092 6.05992 13.1979L6.38695 7.74955C6.39637 7.59245 6.47922 7.44897 6.61055 7.36225L11.1655 4.35484Z" fill="#92D8B4"/>
</svg>